<svg xmlns="http://www.w3.org/2000/svg" width="100" height="122" viewBox="0 0 100 122"><defs><linearGradient id="a" x2="0" y2="1"><stop stop-color="#fffaf0"/><stop offset="1" stop-color="#f3e3bf"/></linearGradient><linearGradient id="b" x2="0" y2="1"><stop stop-color="#ffe7a8"/><stop offset="1" stop-color="#e3ad4c"/></linearGradient><radialGradient id="c" cx=".4" cy=".35" r=".7"><stop stop-color="#f0c46a"/><stop offset="1" stop-color="#b9802a"/></radialGradient></defs><ellipse cx="50" cy="113" fill="#142a5a" opacity=".14" rx="28" ry="3.5"/><rect width="18" height="7.5" x="4" y="50" fill="#f6ead0" rx="3.75" transform="rotate(-20 22 53.75)"/><rect width="64" height="66" x="18" y="16" fill="url(#a)" rx="7"/><rect width="18" height="7.5" x="78" y="50" fill="#f6ead0" rx="3.75" transform="rotate(20 78 53.75)"/><g fill="url(#b)"><rect width="80" height="16" x="10" y="7" rx="8"/><rect width="80" height="16" x="10" y="78" rx="8"/></g><g fill="url(#c)"><circle cx="10" cy="15" r="6.5"/><circle cx="90" cy="15" r="6.5"/><circle cx="10" cy="86" r="6.5"/><circle cx="90" cy="86" r="6.5"/></g><g fill="#23305a"><ellipse cx="37" cy="41" rx="4" ry="5"/><ellipse cx="61" cy="41" rx="4" ry="5"/><path d="M44.5 49h11a5.5 5.5 0 0 1-11 0"/></g><g fill="#fff"><circle cx="35.8" cy="38.8" r="1.4"/><circle cx="59.8" cy="38.8" r="1.4"/></g><g fill="#f0a3a8" opacity=".6"><ellipse cx="30.5" cy="52" rx="5.5" ry="3"/><ellipse cx="67.5" cy="52" rx="5.5" ry="3"/></g></svg>